<svg width="42" height="42" viewBox="0 0 42 42" fill="none" xmlns="http://www.w3.org/2000/svg">
<g id="Calendar container">
<g id="Calendar">
<path id="Vector" d="M40.031 22.3125C40.0285 27.3592 38.0227 32.1984 34.4542 35.7669C30.8856 39.3355 26.0464 41.3413 20.9997 41.3438C17.3969 41.3452 13.8677 40.3235 10.8229 38.3975C7.778 36.4716 5.34267 33.7205 3.80024 30.4646C2.25782 27.2086 1.67171 23.5815 2.11013 20.0055C2.54856 16.4294 3.99347 13.0514 6.27676 10.2644C8.05623 8.07784 10.3015 6.31621 12.8486 5.10808C15.3958 3.89996 18.1806 3.27583 20.9997 3.28125C21.7897 3.28461 22.5787 3.33677 23.3622 3.43744C22.7924 4.19488 22.353 5.04215 22.0622 5.94431C21.7085 5.92047 21.3542 5.90778 20.9997 5.90625C18.6962 5.90239 16.4181 6.38629 14.315 7.32611C12.212 8.26593 10.3318 9.64038 8.79807 11.359C10.5496 12.6348 14.1275 15.7671 13.0801 19.4342C12.9334 19.8605 12.8765 20.3125 12.9128 20.7619C12.9492 21.2112 13.0781 21.6482 13.2914 22.0454C14.1655 23.5666 16.2498 24.1119 16.2708 24.1172C16.4335 24.1697 19.1491 25.1016 19.745 27.2587C20.0934 28.52 19.6538 29.8764 18.4397 31.2913C17.2713 32.7264 15.726 33.8072 13.9772 34.4124C12.9771 34.8016 12.4101 35.0254 12.08 36.0754C15.5347 38.3205 19.7086 39.1816 23.7698 38.4868C27.8311 37.7921 31.4814 35.5927 33.9935 32.3269C34.0722 32.2245 34.1398 32.1169 34.2159 32.0132C33.7507 29.3226 32.91 28.9944 31.9532 28.6269C31.3414 28.4327 30.7808 28.1039 30.3126 27.6649C29.7558 27.0523 29.2732 26.3763 28.8747 25.6508C27.9855 24.1848 26.9775 22.5218 24.6747 21.3701L24.195 21.1313C20.7983 19.4467 18.7481 18.4295 20.6841 12.6354C20.9509 11.823 21.3624 11.0656 21.8988 10.3996C22.4796 12.8638 24.1143 16.023 26.7892 19.8325C27.1725 20.3773 27.6812 20.8218 28.2723 21.1287C28.8635 21.4356 29.5198 21.5958 30.1859 21.5958C30.852 21.5958 31.5083 21.4356 32.0995 21.1287C32.6907 20.8218 33.1994 20.3773 33.5827 19.8325C35.14 17.6903 36.481 15.3988 37.5858 12.9918C39.1886 15.8368 40.0307 19.0471 40.031 22.3125ZM28.4016 18.7031C26.4584 15.9344 23.6247 11.4063 23.6247 8.53125C23.6247 6.79077 24.3161 5.12157 25.5468 3.89086C26.7775 2.66015 28.4467 1.96875 30.1872 1.96875C31.9277 1.96875 33.5969 2.66015 34.8276 3.89086C36.0583 5.12157 36.7497 6.79077 36.7497 8.53125C36.7497 11.4063 33.916 15.9344 31.9729 18.7031C31.7713 18.9894 31.5038 19.223 31.1931 19.3842C30.8823 19.5455 30.5373 19.6296 30.1872 19.6296C29.8371 19.6296 29.4921 19.5455 29.1814 19.3842C28.8706 19.223 28.6032 18.9894 28.4016 18.7031ZM30.1872 11.8125C30.8362 11.8125 31.4706 11.6201 32.0102 11.2595C32.5498 10.899 32.9704 10.3865 33.2187 9.78693C33.4671 9.18736 33.532 8.52761 33.4054 7.89111C33.2788 7.25461 32.9663 6.66995 32.5074 6.21106C32.0485 5.75216 31.4639 5.43966 30.8274 5.31305C30.1909 5.18644 29.5311 5.25142 28.9315 5.49977C28.332 5.74812 27.8195 6.16869 27.459 6.70829C27.0984 7.24788 26.906 7.88228 26.906 8.53125C26.906 9.40149 27.2517 10.2361 27.867 10.8514C28.4824 11.4668 29.317 11.8125 30.1872 11.8125Z" fill="#FF5042"/>
</g>
</g>
</svg>
