<svg width="42" height="42" viewBox="0 0 42 42" fill="none" xmlns="http://www.w3.org/2000/svg">
<g id="Calendar container">
<g id="Calendar">
<path id="Vector" d="M18.3752 29.75C18.3753 31.6734 18.8634 33.5653 19.7938 35.2486C20.7243 36.932 22.0666 38.3517 23.6952 39.375H9.30142C8.44533 39.3759 7.59859 39.197 6.816 38.85C6.03341 38.5029 5.3324 37.9954 4.75834 37.3604C4.18428 36.7253 3.74996 35.9767 3.48349 35.1631C3.21701 34.3496 3.12432 33.4891 3.21142 32.6375L5.10142 13.7375C5.16259 13.0892 5.46409 12.4873 5.94662 12.0501C6.42915 11.613 7.05779 11.3721 7.70892 11.375H30.7914C31.4425 11.3721 32.0712 11.613 32.5537 12.0501C33.0362 12.4873 33.3377 13.0892 33.3989 13.7375L33.9414 19.18C32.6091 18.6447 31.186 18.3714 29.7502 18.375C26.7342 18.3778 23.8425 19.5771 21.7099 21.7097C19.5773 23.8424 18.3779 26.734 18.3752 29.75Z" fill="#FF5042"/>
<path id="Vector_2" d="M26.25 15.75C26.0179 15.75 25.7954 15.6578 25.6313 15.4937C25.4672 15.3296 25.375 15.1071 25.375 14.875V10.5C25.375 8.87555 24.7297 7.31763 23.581 6.16897C22.4324 5.02031 20.8745 4.375 19.25 4.375C17.6255 4.375 16.0676 5.02031 14.919 6.16897C13.7703 7.31763 13.125 8.87555 13.125 10.5V14.875C13.125 15.1071 13.0328 15.3296 12.8687 15.4937C12.7046 15.6578 12.4821 15.75 12.25 15.75C12.0179 15.75 11.7954 15.6578 11.6313 15.4937C11.4672 15.3296 11.375 15.1071 11.375 14.875V10.5C11.375 8.41142 12.2047 6.40838 13.6815 4.93153C15.1584 3.45469 17.1614 2.625 19.25 2.625C21.3386 2.625 23.3416 3.45469 24.8185 4.93153C26.2953 6.40838 27.125 8.41142 27.125 10.5V14.875C27.125 15.1071 27.0328 15.3296 26.8687 15.4937C26.7046 15.6578 26.4821 15.75 26.25 15.75ZM29.75 20.125C27.8464 20.125 25.9855 20.6895 24.4026 21.7471C22.8198 22.8047 21.5862 24.3079 20.8577 26.0667C20.1292 27.8254 19.9386 29.7607 20.3099 31.6277C20.6813 33.4948 21.598 35.2098 22.9441 36.5559C24.2902 37.902 26.0052 38.8187 27.8723 39.1901C29.7393 39.5614 31.6746 39.3708 33.4333 38.6423C35.1921 37.9138 36.6953 36.6802 37.7529 35.0974C38.8105 33.5145 39.375 31.6536 39.375 29.75C39.372 27.1982 38.357 24.7518 36.5526 22.9474C34.7482 21.143 32.3018 20.128 29.75 20.125ZM34.7436 27.7436L29.4936 32.9936C29.3295 33.1577 29.107 33.2498 28.875 33.2498C28.643 33.2498 28.4205 33.1577 28.2564 32.9936L25.6314 30.3686C25.472 30.2036 25.3838 29.9826 25.3858 29.7531C25.3878 29.5237 25.4798 29.3043 25.642 29.142C25.8043 28.9798 26.0237 28.8878 26.2531 28.8858C26.4826 28.8838 26.7036 28.972 26.8686 29.1314L28.875 31.1377L33.5064 26.5064C33.6714 26.347 33.8924 26.2588 34.1219 26.2608C34.3513 26.2628 34.5707 26.3548 34.733 26.517C34.8952 26.6793 34.9872 26.8987 34.9892 27.1281C34.9912 27.3576 34.903 27.5786 34.7436 27.7436Z" fill="#FF5042"/>
</g>
</g>
</svg>
