<svg width="42" height="42" viewBox="0 0 42 42" fill="none" xmlns="http://www.w3.org/2000/svg">
<g id="Button container">
<g id="Button">
<path id="Vector" fill-rule="evenodd" clip-rule="evenodd" d="M30.4271 0H11.5737C10.4648 0.00125901 9.40163 0.442305 8.61745 1.22639C7.83327 2.01048 7.3921 3.07359 7.39071 4.18253V8.71582H34.6101V4.18253C34.6087 3.07361 34.1675 2.01051 33.3834 1.22642C32.5992 0.442337 31.5361 0.00128072 30.4271 0ZM7.39063 10.5492V41.0834C7.39055 41.2525 7.43727 41.4183 7.52561 41.5624C7.61394 41.7066 7.74045 41.8235 7.89112 41.9002C8.04179 41.9769 8.21076 42.0105 8.37931 41.9971C8.54786 41.9837 8.70942 41.924 8.84611 41.8245L12.5382 39.142L16.2306 41.8245C16.3872 41.9383 16.5758 41.9995 16.7694 41.9995C16.963 41.9995 17.1516 41.9383 17.3082 41.8245L21.0003 39.1421L24.6926 41.8245C24.8492 41.9383 25.0378 41.9996 25.2314 41.9996C25.4249 41.9996 25.6135 41.9383 25.7701 41.8245L29.4624 39.1421L33.1547 41.8245C33.2914 41.9239 33.4529 41.9835 33.6214 41.9968C33.7899 42.01 33.9588 41.9765 34.1094 41.8998C34.26 41.8231 34.3864 41.7063 34.4748 41.5622C34.5632 41.4182 34.61 41.2525 34.6101 41.0835V10.5492H7.39063ZM25.4757 20.38C25.5609 20.4652 25.6285 20.5662 25.6745 20.6775C25.7206 20.7887 25.7444 20.908 25.7444 21.0284C25.7444 21.1489 25.7206 21.2681 25.6745 21.3794C25.6285 21.4906 25.5609 21.5917 25.4757 21.6768L20.4745 26.6776C20.3049 26.8477 20.0751 26.9444 19.8349 26.9466C19.5946 26.9489 19.3631 26.8567 19.1902 26.6899L16.5378 24.1349C16.3659 23.9656 16.2676 23.7353 16.2644 23.4939C16.2611 23.2526 16.3532 23.0198 16.5206 22.8459C16.688 22.672 16.9172 22.5712 17.1584 22.5652C17.3997 22.5593 17.6336 22.6488 17.8093 22.8142L19.8143 24.7453L24.1796 20.3799C24.3515 20.2082 24.5846 20.1118 24.8276 20.1118C25.0706 20.1118 25.3037 20.2082 25.4756 20.3799L25.4757 20.38ZM21.0003 31.3208C19.4593 31.3209 17.9528 30.8639 16.6715 30.0077C15.3901 29.1516 14.3914 27.9347 13.8017 26.5109C13.2119 25.0872 13.0576 23.5205 13.3582 22.0091C13.6589 20.4976 14.401 19.1092 15.4906 18.0195C16.5803 16.9298 17.9687 16.1877 19.4801 15.8871C20.9916 15.5864 22.5583 15.7407 23.982 16.3305C25.4058 16.9202 26.6227 17.9189 27.4789 19.2002C28.335 20.4816 28.792 21.988 28.792 23.5291C28.7897 25.5949 27.9681 27.5754 26.5074 29.0362C25.0467 30.4969 23.0661 31.3186 21.0003 31.3208ZM21.0003 13.9043C22.904 13.9043 24.7649 14.4688 26.3478 15.5264C27.9306 16.584 29.1643 18.0872 29.8928 19.846C30.6213 21.6048 30.8119 23.5401 30.4405 25.4071C30.0691 27.2742 29.1524 28.9893 27.8063 30.3354C26.4602 31.6814 24.7452 32.5981 22.8781 32.9695C21.011 33.3409 19.0757 33.1502 17.3169 32.4217C15.5582 31.6931 14.055 30.4594 12.9974 28.8766C11.9398 27.2937 11.3753 25.4328 11.3754 23.5291C11.3784 20.9774 12.3935 18.531 14.1978 16.7266C16.0022 14.9223 18.4486 13.9073 21.0003 13.9043Z" fill="#FF5042"/>
</g>
</g>
</svg>
