<svg width="42" height="42" viewBox="0 0 42 42" fill="none" xmlns="http://www.w3.org/2000/svg">
<g id="Button container" clip-path="url(#clip0_87_2598)">
<g id="Button">
<path id="Vector" d="M9.02335 12.797C9.02335 12.1175 8.47243 11.5666 7.79289 11.5666H1.23046C0.550916 11.5666 0 12.1175 0 12.797C0 13.4766 0.550916 14.0275 1.23046 14.0275H7.79289C8.47243 14.0275 9.02335 13.4766 9.02335 12.797ZM9.67959 17.3907C9.67959 16.7112 9.12868 16.1603 8.44914 16.1603H3.19919C2.51965 16.1603 1.96873 16.7112 1.96873 17.3907C1.96873 18.0703 2.51965 18.6212 3.19919 18.6212H8.44914C9.12868 18.6212 9.67959 18.0703 9.67959 17.3907ZM9.18741 20.754H5.16792C4.48838 20.754 3.93746 21.3049 3.93746 21.9844C3.93746 22.664 4.48838 23.2149 5.16792 23.2149H9.18741C9.86695 23.2149 10.4179 22.664 10.4179 21.9844C10.4179 21.3049 9.86695 20.754 9.18741 20.754ZM40.7691 6.15254C40.7691 5.473 40.2182 4.92209 39.5387 4.92209H37.3649V5.64067C37.3649 6.3399 36.7807 6.90345 36.0741 6.86965C35.4125 6.83799 34.904 6.26788 34.904 5.60557V4.92201H32.7302C32.0506 4.92201 31.4997 5.47292 31.4997 6.15246V9.18759H40.7691V6.15254ZM28.8747 2.87133C28.8747 2.19179 28.3238 1.64087 27.6443 1.64087H23.5427V3.69163C23.5427 4.39078 22.9586 4.95441 22.252 4.92061C21.5905 4.88895 21.0818 4.31884 21.0818 3.65652V1.64087H16.9803C16.3008 1.64087 15.7498 2.19179 15.7498 2.87133V9.18767H28.8747V2.87133Z" fill="#FF5042"/>
<path id="Vector_2" d="M40.7692 11.6486H13.4286L12.4499 6.10281C12.3996 5.81795 12.2506 5.55991 12.029 5.37398C11.8075 5.18806 11.5275 5.08614 11.2382 5.08612H4.67577C3.99623 5.08612 3.44531 5.63704 3.44531 6.31658C3.44531 6.99612 3.99623 7.54703 4.67577 7.54703H10.2059L13.7236 27.481C11.9782 27.8487 10.664 29.4007 10.664 31.2538C10.664 33.3797 12.3935 35.1093 14.5194 35.1093H15.5198C14.5357 37.6362 16.416 40.3592 19.1131 40.3592C21.7994 40.3592 23.6945 37.6465 22.7065 35.1093H27.3322C26.3503 37.6306 28.2222 40.3592 30.9255 40.3592C33.6319 40.3592 35.4999 37.6283 34.5189 35.1093H36.8317C37.5112 35.1093 38.0622 34.5583 38.0622 33.8788C38.0622 33.1993 37.5112 32.6484 36.8317 32.6484H14.5194C13.7505 32.6484 13.1249 32.0228 13.1249 31.2538C13.1249 30.4849 13.7505 29.8593 14.5194 29.8593H37.4879C37.7707 29.8593 38.0448 29.7619 38.2642 29.5835C38.4836 29.4052 38.6349 29.1567 38.6926 28.8799L41.9738 13.13C42.133 12.3657 41.5485 11.6486 40.7692 11.6486Z" fill="#FF5042"/>
</g>
</g>
<defs>
<clipPath id="clip0_87_2598">
<rect width="42" height="42" fill="white"/>
</clipPath>
</defs>
</svg>
