<svg width="42" height="42" viewBox="0 0 42 42" fill="none" xmlns="http://www.w3.org/2000/svg">
<g id="Button container">
<g id="Button">
<path id="Vector" d="M36.6192 8.96083V23.037L27.861 26.2364C27.861 24.116 26.2181 22.6911 24.4022 22.6911H19.041C17.6822 21.743 15.6341 20.0908 12.1172 19.8623V8.96083C12.1188 8.31485 12.3766 7.69589 12.8339 7.23969C13.2913 6.78349 13.9109 6.5273 14.5569 6.5273H18.794V11.6476C18.794 13.1695 20.4567 14.167 21.8204 13.3647L24.1737 11.9626L26.5207 13.3647C27.8808 14.1645 29.5472 13.1775 29.5472 11.6476V6.5273H34.1857C35.526 6.5273 36.6192 7.62053 36.6192 8.96083Z" fill="#FF5042"/>
<path id="Vector_2" d="M8.93536 32.5024C8.93536 32.6396 8.88089 32.771 8.78394 32.868C8.68699 32.9649 8.55549 33.0194 8.41839 33.0194H2.98865C2.85154 33.0194 2.72005 32.9649 2.6231 32.868C2.52615 32.771 2.47168 32.6396 2.47168 32.5024V19.53C2.47168 19.2453 2.7033 19.0137 2.98865 19.0137H8.41839C8.70374 19.0137 8.93536 19.2453 8.93536 19.53V32.5024ZM38.6516 27.0585L24.5377 34.3597C21.4452 35.9607 17.6788 35.8266 14.7048 34.0101L10.1706 31.2443V21.0729H11.3627C14.9488 21.0729 17.0129 22.7807 18.4891 23.8146C18.5929 23.8869 18.7164 23.9258 18.843 23.9258H24.4019C24.9905 23.9258 25.5551 24.1592 25.972 24.5749C26.3888 24.9905 26.6238 25.5545 26.6254 26.1431C26.6254 27.3537 25.6378 28.3673 24.4019 28.3673H18.4292C18.2654 28.3673 18.1083 28.4324 17.9925 28.5482C17.8766 28.664 17.8116 28.8211 17.8116 28.9849C17.8116 29.1488 17.8766 29.3059 17.9925 29.4217C18.1083 29.5375 18.2654 29.6026 18.4292 29.6026H24.4019C25.0443 29.6029 25.6741 29.4238 26.2202 29.0854C26.7663 28.747 27.207 28.2627 27.4926 27.6873L37.2773 24.1129C37.6488 23.9563 38.0654 23.9438 38.4456 24.0779C38.8259 24.212 39.1424 24.483 39.3335 24.8381C39.4361 25.0283 39.4999 25.237 39.5211 25.4521C39.5423 25.6672 39.5206 25.8844 39.4572 26.091C39.3937 26.2976 39.2898 26.4895 39.1515 26.6556C39.0132 26.8217 38.8433 26.9587 38.6516 27.0585ZM28.3116 6.5273V11.6451C28.3116 12.2381 27.6649 12.6056 27.1553 12.3011L24.5618 10.7539C24.4434 10.6832 24.3081 10.6459 24.1702 10.6459C24.0324 10.6459 23.897 10.6832 23.7787 10.7539L21.1845 12.3011C21.0685 12.3701 20.9362 12.4072 20.8012 12.4085C20.6662 12.4099 20.5332 12.3755 20.4158 12.3088C20.2984 12.2421 20.2008 12.1455 20.1328 12.0288C20.0649 11.9121 20.029 11.7795 20.0289 11.6445V6.5273H28.3116Z" fill="#FF5042"/>
</g>
</g>
</svg>
