<svg width="32" height="32" viewBox="0 0 32 32" fill="none" xmlns="http://www.w3.org/2000/svg">
<g id="Huge-icon/smart house/solid/home">
<g id="Calendar container">
<path id="Calendar" fill-rule="evenodd" clip-rule="evenodd" d="M28 13.5338V23.9558C28 26.9257 25.6122 29.3333 22.6667 29.3333H9.33333C6.38781 29.3333 4 26.9257 4 23.9558V13.5338C4 11.9192 4.71953 10.39 5.95982 9.3687L12.6265 3.87913C14.5897 2.26251 17.4103 2.26251 19.3735 3.87913L26.0402 9.3687C27.2805 10.39 28 11.9192 28 13.5338ZM11.0571 20.4127C10.5487 20.197 9.96171 20.4343 9.74602 20.9427C9.53032 21.4511 9.76763 22.0382 10.276 22.2538C12.448 23.1753 14.2366 23.6711 16.0564 23.6666C17.8772 23.662 19.63 23.1568 21.7292 22.2515C22.2364 22.0328 22.4702 21.4444 22.2515 20.9373C22.0328 20.4302 21.4444 20.1963 20.9373 20.415C18.9517 21.2712 17.4856 21.663 16.0514 21.6666C14.6163 21.6702 13.1139 21.2852 11.0571 20.4127Z" fill="#FF5042"/>
</g>
</g>
</svg>
