<svg width="32" height="32" viewBox="0 0 32 32" fill="none" xmlns="http://www.w3.org/2000/svg">
<g id="Huge-icon/education/solid/video call">
<g id="Button container">
<path id="Button" fill-rule="evenodd" clip-rule="evenodd" d="M6.66602 2.66666C4.45688 2.66666 2.66602 4.45751 2.66602 6.66665V21.3333C2.66602 23.5425 4.45687 25.3333 6.66601 25.3333H14.9993V28.3333H11.9993C11.4471 28.3333 10.9993 28.781 10.9993 29.3333C10.9993 29.8856 11.4471 30.3333 11.9993 30.3333H19.9993C20.5516 30.3333 20.9993 29.8856 20.9993 29.3333C20.9993 28.781 20.5516 28.3333 19.9993 28.3333H16.9993V25.3333H25.3327C27.5418 25.3333 29.3327 23.5425 29.3327 21.3333V6.66666C29.3327 4.45752 27.5418 2.66666 25.3327 2.66666H6.66602ZM15.9993 7.99999C17.4721 7.99999 18.666 9.1939 18.666 10.6667C18.666 12.1394 17.4721 13.3333 15.9993 13.3333C14.5266 13.3333 13.3327 12.1394 13.3327 10.6667C13.3327 9.1939 14.5266 7.99999 15.9993 7.99999ZM10.666 18C10.666 16.8954 11.5614 16 12.666 16H19.3327C20.4373 16 21.3327 16.8954 21.3327 18C21.3327 19.1046 20.4373 20 19.3327 20H12.666C11.5614 20 10.666 19.1046 10.666 18Z" fill="#FF5042"/>
</g>
</g>
</svg>
