<svg width="36" height="36" viewBox="0 0 36 36" fill="none" xmlns="http://www.w3.org/2000/svg">
<g id="4 - Filled / question-circle">
<path id="question-circle-Filled" d="M18 3C9.735 3 3 9.735 3 18C3 26.265 9.735 33 18 33C26.265 33 33 26.265 33 18C33 9.735 26.265 3 18 3ZM18 27C17.175 27 16.5 26.325 16.5 25.5C16.5 24.675 17.175 24 18 24C18.825 24 19.5 24.675 19.5 25.5C19.5 26.325 18.825 27 18 27ZM21.06 19.9801C19.68 20.8951 19.455 21.3901 19.425 21.4801C19.215 22.1101 18.63 22.5 18 22.5C17.835 22.5 17.685 22.4699 17.52 22.4249C16.74 22.1549 16.32 21.2999 16.575 20.5199C17.04 19.1699 18.405 18.1349 19.395 17.4749C21.27 16.2299 21.03 14.8798 20.955 14.4448C20.745 13.2598 19.74 12.255 18.555 12.045C17.64 11.88 16.77 12.12 16.065 12.705C15.39 13.275 15 14.115 15 15C15 15.825 14.325 16.5 13.5 16.5C12.675 16.5 12 15.825 12 15C12 13.23 12.78 11.5499 14.145 10.4099C15.51 9.25491 17.31 8.79009 19.08 9.09009C21.495 9.52509 23.475 11.505 23.91 13.92C24.33 16.32 23.31 18.4801 21.06 19.9801Z" fill="#FF5042"/>
</g>
</svg>
